# xmcd
# 
# Track frame offsets:
#     150
#     14228
#     34505
#     53243
#     69737
#     91787
#     110429
#     126833
#     144356
#     164335
#     182403
# 
# Disc length: 2680
# 
# Revision: 2
# Processed by: cddbd v1.5.2PL0 Copyright (c) Steve Scherf et al.
# Submitted via: BonkEnc v1.0.8
# 
DISCID=910a760b
DTITLE=Notodden Blues Band and Torhild Sivertsen - Soul Food
DYEAR=2003
DGENRE=Blues
TTITLE0=Island
TTITLE1=Mr. Bad Luck
TTITLE2=I'm Gonna Tear Your Playhouse Down
TTITLE3=Cheap Wine
TTITLE4=Turn To Rain
TTITLE5=Good To Be Back
TTITLE6=Raging Waters
TTITLE7=Footprints
TTITLE8=I'm Down
TTITLE9=Honey From The Jar
TTITLE10=UPS Blues
EXTD=
EXTT0=
EXTT1=
EXTT2=
EXTT3=
EXTT4=
EXTT5=
EXTT6=
EXTT7=
EXTT8=
EXTT9=
EXTT10=
PLAYORDER=
